<svg width="14" height="14" viewBox="0 0 14 14" fill="none" xmlns="http://www.w3.org/2000/svg">
<mask id="path-1-inside-1_1996_2481" fill="white">
<path d="M2.625 8.75C2.625 9.15104 2.67741 9.53841 2.78223 9.91211C2.88704 10.2858 3.03288 10.6344 3.21973 10.958C3.40658 11.2816 3.63444 11.5755 3.90332 11.8398C4.1722 12.1042 4.46842 12.332 4.79199 12.5234C5.11556 12.7148 5.46419 12.863 5.83789 12.9678C6.21159 13.0726 6.59896 13.125 7 13.125C7.30078 13.125 7.59928 13.0954 7.89551 13.0361C8.19173 12.9769 8.47656 12.8835 8.75 12.7559V13.6924C8.18945 13.8975 7.60612 14 7 14C6.51693 14 6.05208 13.9385 5.60547 13.8154C5.15885 13.6924 4.74186 13.5146 4.35449 13.2822C3.96712 13.0498 3.61165 12.7764 3.28809 12.4619C2.96452 12.1475 2.69108 11.7943 2.46777 11.4023C2.24447 11.0104 2.06901 10.5911 1.94141 10.1445C1.8138 9.69792 1.75 9.23307 1.75 8.75C1.75 8.36719 1.79102 7.99121 1.87305 7.62207C1.95508 7.25293 2.07357 6.89974 2.22852 6.5625C2.38346 6.22526 2.57487 5.90625 2.80273 5.60547C3.0306 5.30469 3.28809 5.02669 3.5752 4.77148C3.60254 4.9401 3.64355 5.11784 3.69824 5.30469C3.75293 5.49154 3.81901 5.67611 3.89648 5.8584C3.97396 6.04069 4.06055 6.21615 4.15625 6.38477C4.25195 6.55339 4.35677 6.7015 4.4707 6.8291C4.57096 6.94303 4.68945 7 4.82617 7C4.94922 7 5.05176 6.95671 5.13379 6.87012C5.21582 6.78353 5.25911 6.67871 5.26367 6.55566C5.26367 6.50553 5.25684 6.45996 5.24316 6.41895C5.22949 6.37793 5.20671 6.33691 5.1748 6.2959C4.9196 5.9222 4.72363 5.55078 4.58691 5.18164C4.4502 4.8125 4.37956 4.39779 4.375 3.9375C4.375 3.39518 4.47754 2.88477 4.68262 2.40625C4.8877 1.92773 5.17025 1.51074 5.53027 1.15527C5.8903 0.799805 6.30729 0.519531 6.78125 0.314453C7.25521 0.109375 7.76562 0.00455729 8.3125 0H8.75V0.4375C8.75 1.24414 8.90039 1.99609 9.20117 2.69336C9.50195 3.39062 9.9349 4.02409 10.5 4.59375C11.0651 5.16341 11.498 5.79688 11.7988 6.49414C12.0996 7.19141 12.25 7.94336 12.25 8.75H11.375C11.375 8.05729 11.2474 7.41699 10.9922 6.8291C10.737 6.24121 10.3678 5.70345 9.88477 5.21582C9.29232 4.61426 8.82747 3.95801 8.49023 3.24707C8.15299 2.53613 7.95247 1.75456 7.88867 0.902344C7.51042 0.952474 7.16178 1.06641 6.84277 1.24414C6.52376 1.42188 6.24349 1.64746 6.00195 1.9209C5.76042 2.19434 5.57585 2.50195 5.44824 2.84375C5.32064 3.18555 5.25456 3.55013 5.25 3.9375C5.25 4.29753 5.30241 4.61882 5.40723 4.90137C5.51204 5.18392 5.66699 5.47103 5.87207 5.7627C5.95866 5.8903 6.02474 6.01335 6.07031 6.13184C6.11589 6.25033 6.14095 6.3916 6.14551 6.55566C6.14551 6.73796 6.11133 6.90885 6.04297 7.06836C5.97461 7.22786 5.87891 7.36686 5.75586 7.48535C5.63281 7.60384 5.49382 7.69954 5.33887 7.77246C5.18392 7.84538 5.01302 7.87956 4.82617 7.875C4.61654 7.875 4.43197 7.83626 4.27246 7.75879C4.11296 7.68132 3.97168 7.5765 3.84863 7.44434C3.72559 7.31217 3.61393 7.16406 3.51367 7C3.41341 6.83594 3.32454 6.67188 3.24707 6.50781C3.04199 6.84961 2.88704 7.20964 2.78223 7.58789C2.67741 7.96615 2.625 8.35352 2.625 8.75ZM14 11.375V12.25H12.25V14H11.375V12.25H9.625V11.375H11.375V9.625H12.25V11.375H14Z"/>
</mask>
<path d="M2.625 8.75C2.625 9.15104 2.67741 9.53841 2.78223 9.91211C2.88704 10.2858 3.03288 10.6344 3.21973 10.958C3.40658 11.2816 3.63444 11.5755 3.90332 11.8398C4.1722 12.1042 4.46842 12.332 4.79199 12.5234C5.11556 12.7148 5.46419 12.863 5.83789 12.9678C6.21159 13.0726 6.59896 13.125 7 13.125C7.30078 13.125 7.59928 13.0954 7.89551 13.0361C8.19173 12.9769 8.47656 12.8835 8.75 12.7559V13.6924C8.18945 13.8975 7.60612 14 7 14C6.51693 14 6.05208 13.9385 5.60547 13.8154C5.15885 13.6924 4.74186 13.5146 4.35449 13.2822C3.96712 13.0498 3.61165 12.7764 3.28809 12.4619C2.96452 12.1475 2.69108 11.7943 2.46777 11.4023C2.24447 11.0104 2.06901 10.5911 1.94141 10.1445C1.8138 9.69792 1.75 9.23307 1.75 8.75C1.75 8.36719 1.79102 7.99121 1.87305 7.62207C1.95508 7.25293 2.07357 6.89974 2.22852 6.5625C2.38346 6.22526 2.57487 5.90625 2.80273 5.60547C3.0306 5.30469 3.28809 5.02669 3.5752 4.77148C3.60254 4.9401 3.64355 5.11784 3.69824 5.30469C3.75293 5.49154 3.81901 5.67611 3.89648 5.8584C3.97396 6.04069 4.06055 6.21615 4.15625 6.38477C4.25195 6.55339 4.35677 6.7015 4.4707 6.8291C4.57096 6.94303 4.68945 7 4.82617 7C4.94922 7 5.05176 6.95671 5.13379 6.87012C5.21582 6.78353 5.25911 6.67871 5.26367 6.55566C5.26367 6.50553 5.25684 6.45996 5.24316 6.41895C5.22949 6.37793 5.20671 6.33691 5.1748 6.2959C4.9196 5.9222 4.72363 5.55078 4.58691 5.18164C4.4502 4.8125 4.37956 4.39779 4.375 3.9375C4.375 3.39518 4.47754 2.88477 4.68262 2.40625C4.8877 1.92773 5.17025 1.51074 5.53027 1.15527C5.8903 0.799805 6.30729 0.519531 6.78125 0.314453C7.25521 0.109375 7.76562 0.00455729 8.3125 0H8.75V0.4375C8.75 1.24414 8.90039 1.99609 9.20117 2.69336C9.50195 3.39062 9.9349 4.02409 10.5 4.59375C11.0651 5.16341 11.498 5.79688 11.7988 6.49414C12.0996 7.19141 12.25 7.94336 12.25 8.75H11.375C11.375 8.05729 11.2474 7.41699 10.9922 6.8291C10.737 6.24121 10.3678 5.70345 9.88477 5.21582C9.29232 4.61426 8.82747 3.95801 8.49023 3.24707C8.15299 2.53613 7.95247 1.75456 7.88867 0.902344C7.51042 0.952474 7.16178 1.06641 6.84277 1.24414C6.52376 1.42188 6.24349 1.64746 6.00195 1.9209C5.76042 2.19434 5.57585 2.50195 5.44824 2.84375C5.32064 3.18555 5.25456 3.55013 5.25 3.9375C5.25 4.29753 5.30241 4.61882 5.40723 4.90137C5.51204 5.18392 5.66699 5.47103 5.87207 5.7627C5.95866 5.8903 6.02474 6.01335 6.07031 6.13184C6.11589 6.25033 6.14095 6.3916 6.14551 6.55566C6.14551 6.73796 6.11133 6.90885 6.04297 7.06836C5.97461 7.22786 5.87891 7.36686 5.75586 7.48535C5.63281 7.60384 5.49382 7.69954 5.33887 7.77246C5.18392 7.84538 5.01302 7.87956 4.82617 7.875C4.61654 7.875 4.43197 7.83626 4.27246 7.75879C4.11296 7.68132 3.97168 7.5765 3.84863 7.44434C3.72559 7.31217 3.61393 7.16406 3.51367 7C3.41341 6.83594 3.32454 6.67188 3.24707 6.50781C3.04199 6.84961 2.88704 7.20964 2.78223 7.58789C2.67741 7.96615 2.625 8.35352 2.625 8.75ZM14 11.375V12.25H12.25V14H11.375V12.25H9.625V11.375H11.375V9.625H12.25V11.375H14Z" fill="#FF455B"/>
<path d="M8.75 12.7559H11.25V8.83037L7.69279 10.4904L8.75 12.7559ZM8.75 13.6924L9.60895 16.0402L11.25 15.4398V13.6924H8.75ZM3.5752 4.77148L6.04296 4.37131L5.3147 -0.119629L1.91429 2.90296L3.5752 4.77148ZM4.4707 6.8291L6.34749 5.17753L6.34154 5.17078L6.33555 5.16406L4.4707 6.8291ZM5.26367 6.55566L7.76196 6.64819L7.76367 6.60194V6.55566H5.26367ZM5.1748 6.2959L3.1103 7.7058L3.15393 7.76969L3.20142 7.83075L5.1748 6.2959ZM4.375 3.9375H1.875V3.94988L1.87512 3.96225L4.375 3.9375ZM8.3125 0V-2.5H8.30208L8.29167 -2.49991L8.3125 0ZM8.75 0H11.25V-2.5H8.75V0ZM12.25 8.75V11.25H14.75V8.75H12.25ZM11.375 8.75H8.875V11.25H11.375V8.75ZM9.88477 5.21582L8.10355 6.97005L8.10872 6.97527L9.88477 5.21582ZM7.88867 0.902344L10.3817 0.7157L10.1841 -1.92373L7.56022 -1.57599L7.88867 0.902344ZM5.25 3.9375L2.75017 3.90809L2.75 3.92279V3.9375H5.25ZM5.87207 5.7627L7.94076 4.35894L7.92909 4.34175L7.91714 4.32475L5.87207 5.7627ZM6.14551 6.55566H8.64551V6.52095L8.64454 6.48625L6.14551 6.55566ZM4.82617 7.875L4.88713 5.37574L4.85666 5.375H4.82617V7.875ZM3.24707 6.50781L5.50769 5.4403L3.51015 1.21021L1.10334 5.22157L3.24707 6.50781ZM14 11.375H16.5V8.875H14V11.375ZM14 12.25V14.75H16.5V12.25H14ZM12.25 12.25V9.75H9.75V12.25H12.25ZM12.25 14V16.5H14.75V14H12.25ZM11.375 14H8.875V16.5H11.375V14ZM11.375 12.25H13.875V9.75H11.375V12.25ZM9.625 12.25H7.125V14.75H9.625V12.25ZM9.625 11.375V8.875H7.125V11.375H9.625ZM11.375 11.375V13.875H13.875V11.375H11.375ZM11.375 9.625V7.125H8.875V9.625H11.375ZM12.25 9.625H14.75V7.125H12.25V9.625ZM12.25 11.375H9.75V13.875H12.25V11.375ZM0.125 8.75C0.125 9.37164 0.206634 9.98658 0.375122 10.5873L5.18933 9.23695C5.14818 9.09025 5.125 8.93044 5.125 8.75H0.125ZM0.375122 10.5873C0.534138 11.1542 0.759532 11.6969 1.05477 12.2082L5.38468 9.70782C5.30622 9.57195 5.23995 9.41742 5.18933 9.23695L0.375122 10.5873ZM1.05477 12.2082C1.35545 12.7289 1.72248 13.2017 2.15073 13.6227L5.65591 10.057C5.5464 9.94938 5.4577 9.83427 5.38468 9.70782L1.05477 12.2082ZM2.15073 13.6227C2.56357 14.0285 3.0208 14.3804 3.51915 14.6752L6.06484 10.3717C5.91605 10.2837 5.78083 10.1798 5.65591 10.057L2.15073 13.6227ZM3.51915 14.6752C4.03598 14.9809 4.58636 15.2132 5.16273 15.3749L6.51305 10.5607C6.34203 10.5127 6.19514 10.4488 6.06484 10.3717L3.51915 14.6752ZM5.16273 15.3749C5.76342 15.5434 6.37836 15.625 7 15.625V10.625C6.81956 10.625 6.65975 10.6018 6.51305 10.5607L5.16273 15.3749ZM7 15.625C7.46613 15.625 7.92885 15.579 8.3858 15.4876L7.40522 10.5847C7.26972 10.6118 7.13543 10.625 7 10.625V15.625ZM8.3858 15.4876C8.87752 15.3892 9.3527 15.2334 9.80721 15.0213L7.69279 10.4904C7.60043 10.5335 7.50595 10.5645 7.40522 10.5847L8.3858 15.4876ZM6.25 12.7559V13.6924H11.25V12.7559H6.25ZM7.89105 11.3446C7.60999 11.4474 7.31772 11.5 7 11.5V16.5C7.89452 16.5 8.76891 16.3475 9.60895 16.0402L7.89105 11.3446ZM7 11.5C6.73167 11.5 6.49072 11.4662 6.2695 11.4052L4.94143 16.2256C5.61345 16.4108 6.30218 16.5 7 16.5V11.5ZM6.2695 11.4052C6.0358 11.3408 5.82881 11.2513 5.64073 11.1385L3.06825 15.426C3.65491 15.778 4.28191 16.0439 4.94143 16.2256L6.2695 11.4052ZM5.64073 11.1385C5.41819 11.005 5.2158 10.8492 5.03042 10.6691L1.54575 14.2548C2.00751 14.7035 2.51606 15.0946 3.06825 15.426L5.64073 11.1385ZM5.03042 10.6691C4.87549 10.5185 4.74677 10.3522 4.63993 10.1647L0.295613 12.64C0.635393 13.2363 1.05355 13.7764 1.54575 14.2548L5.03042 10.6691ZM4.63993 10.1647C4.5185 9.95158 4.41954 9.71787 4.34522 9.45773L-0.462404 10.8313C-0.28152 11.4644 -0.0295632 12.0693 0.295613 12.64L4.63993 10.1647ZM4.34522 9.45773C4.28394 9.24327 4.25 9.01012 4.25 8.75H-0.75C-0.75 9.45603 -0.656338 10.1526 -0.462404 10.8313L4.34522 9.45773ZM4.25 8.75C4.25 8.54733 4.27154 8.35328 4.31351 8.1644L-0.567421 7.07974C-0.68951 7.62914 -0.75 8.18705 -0.75 8.75H4.25ZM4.31351 8.1644C4.35791 7.96462 4.42048 7.77977 4.50021 7.60625L-0.0431765 5.51875C-0.273347 6.01971 -0.447753 6.54124 -0.567421 7.07974L4.31351 8.1644ZM4.50021 7.60625C4.5781 7.43673 4.67538 7.27362 4.79546 7.11511L0.810004 4.09582C0.474357 4.53888 0.188832 5.01379 -0.0431765 5.51875L4.50021 7.60625ZM4.79546 7.11511C4.92295 6.94684 5.06886 6.78867 5.2361 6.64001L1.91429 2.90296C1.50732 3.26471 1.13825 3.66254 0.810004 4.09582L4.79546 7.11511ZM1.10743 5.17166C1.15341 5.45521 1.21911 5.73432 1.2989 6.00693L6.09759 4.60244C6.068 4.50136 6.05167 4.425 6.04296 4.37131L1.10743 5.17166ZM1.2989 6.00693C1.38149 6.28911 1.48065 6.56565 1.59566 6.83625L6.19731 4.88055C6.15737 4.78656 6.12437 4.69396 6.09759 4.60244L1.2989 6.00693ZM1.59566 6.83625C1.70961 7.10438 1.83828 7.36549 1.98204 7.61878L6.33046 5.15075C6.28282 5.0668 6.2383 4.977 6.19731 4.88055L1.59566 6.83625ZM1.98204 7.61878C2.15389 7.92158 2.35937 8.21808 2.60586 8.49414L6.33555 5.16406C6.35417 5.18492 6.35001 5.18519 6.33046 5.15075L1.98204 7.61878ZM2.59392 8.48067C3.11035 9.06753 3.88703 9.5 4.82617 9.5V4.5C5.11745 4.5 5.42565 4.56359 5.718 4.70414C6.00397 4.84163 6.21 5.0213 6.34749 5.17753L2.59392 8.48067ZM4.82617 9.5C5.61122 9.5 6.37794 9.19192 6.94867 8.58948L3.31891 5.15076C3.49813 4.96158 3.73376 4.7865 4.02293 4.66441C4.31038 4.54304 4.58902 4.5 4.82617 4.5V9.5ZM6.94867 8.58948C7.46325 8.04631 7.73571 7.35703 7.76196 6.64819L2.76538 6.46313C2.77313 6.25396 2.81632 6.01624 2.91713 5.77216C3.01844 5.52689 3.16022 5.31826 3.31891 5.15076L6.94867 8.58948ZM7.76367 6.55566C7.76367 6.2788 7.72584 5.96129 7.61487 5.62838L2.87146 7.20951C2.78783 6.95864 2.76367 6.73227 2.76367 6.55566H7.76367ZM7.61487 5.62838C7.49555 5.27042 7.32 4.98195 7.14819 4.76105L3.20142 7.83075C3.09341 7.69188 2.96343 7.48544 2.87146 7.20951L7.61487 5.62838ZM7.23931 4.88599C7.08238 4.65621 6.98754 4.46523 6.93129 4.31335L2.24254 6.04993C2.45973 6.63633 2.75681 7.18819 3.1103 7.7058L7.23931 4.88599ZM6.93129 4.31335C6.90996 4.25578 6.87706 4.13278 6.87488 3.91275L1.87512 3.96225C1.88206 4.66279 1.99043 5.36922 2.24254 6.04993L6.93129 4.31335ZM6.875 3.9375C6.875 3.71934 6.91433 3.54539 6.98048 3.39105L2.38475 1.42145C2.04075 2.22414 1.875 3.07103 1.875 3.9375H6.875ZM6.98048 3.39105C7.06193 3.20099 7.16357 3.05588 7.28675 2.93426L3.7738 -0.623717C3.17692 -0.0343954 2.71346 0.65448 2.38475 1.42145L6.98048 3.39105ZM7.28675 2.93426C7.42172 2.80099 7.57836 2.69354 7.77403 2.60888L5.78847 -1.97997C5.03623 -1.65448 4.35887 -1.20138 3.7738 -0.623717L7.28675 2.93426ZM7.77403 2.60888C7.92314 2.54436 8.10088 2.50185 8.33333 2.49991L8.29167 -2.49991C7.43037 -2.49274 6.58728 -2.32561 5.78847 -1.97997L7.77403 2.60888ZM8.3125 2.5H8.75V-2.5H8.3125V2.5ZM6.25 0V0.4375H11.25V0H6.25ZM6.25 0.4375C6.25 1.56317 6.4617 2.65443 6.90564 3.68359L11.4967 1.70313C11.3391 1.33775 11.25 0.925116 11.25 0.4375H6.25ZM6.90564 3.68359C7.33719 4.68398 7.95246 5.57549 8.72515 6.3544L12.2749 2.8331C11.9173 2.47269 11.6667 2.09727 11.4967 1.70313L6.90564 3.68359ZM8.72515 6.3544C9.08267 6.71481 9.33328 7.09023 9.5033 7.48437L14.0944 5.50391C13.6628 4.50352 13.0475 3.61201 12.2749 2.8331L8.72515 6.3544ZM9.5033 7.48437C9.66091 7.84975 9.75 8.26238 9.75 8.75H14.75C14.75 7.62433 14.5383 6.53307 14.0944 5.50391L9.5033 7.48437ZM12.25 6.25H11.375V11.25H12.25V6.25ZM13.875 8.75C13.875 7.7428 13.6877 6.76036 13.2854 5.83359L8.69895 7.82462C8.80704 8.07363 8.875 8.37179 8.875 8.75H13.875ZM13.2854 5.83359C12.8982 4.94149 12.3466 4.14859 11.6608 3.45637L8.10872 6.97527C8.38912 7.25832 8.5758 7.54093 8.69895 7.82462L13.2854 5.83359ZM11.666 3.4616C11.2554 3.04472 10.9579 2.61599 10.749 2.17561L6.23148 4.31853C6.69706 5.30003 7.32922 6.1838 8.10356 6.97004L11.666 3.4616ZM10.749 2.17561C10.5546 1.76573 10.4245 1.28758 10.3817 0.7157L5.39565 1.08899C5.48044 2.22153 5.75143 3.30653 6.23148 4.31853L10.749 2.17561ZM7.56022 -1.57599C6.88419 -1.48639 6.23221 -1.27752 5.62602 -0.939779L8.05953 3.42806C8.09136 3.41033 8.13665 3.39134 8.21713 3.38067L7.56022 -1.57599ZM5.62602 -0.939779C5.0599 -0.624371 4.55743 -0.220035 4.12827 0.265812L7.87564 3.57599C7.92954 3.51496 7.98762 3.46812 8.05953 3.42806L5.62602 -0.939779ZM4.12827 0.265812C3.68412 0.768618 3.34078 1.34086 3.10614 1.96936L7.79035 3.71814C7.81091 3.66305 7.83671 3.62005 7.87564 3.57599L4.12827 0.265812ZM3.10614 1.96936C2.87147 2.59794 2.75791 3.25004 2.75017 3.90809L7.74983 3.96691C7.7512 3.85022 7.76981 3.77315 7.79035 3.71814L3.10614 1.96936ZM2.75 3.9375C2.75 4.53803 2.83734 5.16175 3.06331 5.77088L7.75114 4.03185C7.76747 4.07588 7.75 4.05702 7.75 3.9375H2.75ZM3.06331 5.77088C3.25506 6.28776 3.52016 6.76425 3.827 7.20064L7.91714 4.32475C7.81382 4.17781 7.76903 4.08007 7.75114 4.03185L3.06331 5.77088ZM3.80338 7.16645C3.80321 7.1662 3.79575 7.15522 3.78409 7.1335C3.77242 7.11178 3.75528 7.07694 3.73695 7.02928L8.40368 5.23439C8.27674 4.90435 8.11261 4.61219 7.94076 4.35894L3.80338 7.16645ZM3.73695 7.02928C3.65588 6.8185 3.6476 6.66574 3.64647 6.62508L8.64454 6.48625C8.6343 6.11746 8.57589 5.68215 8.40368 5.23439L3.73695 7.02928ZM3.64551 6.55566C3.64551 6.41679 3.67341 6.25085 3.74511 6.08356L8.34083 8.05316C8.54925 7.56686 8.64551 7.05913 8.64551 6.55566H3.64551ZM3.74511 6.08356C3.80614 5.94115 3.90038 5.80143 4.02176 5.68455L7.48996 9.28615C7.85743 8.93229 8.14308 8.51458 8.34083 8.05316L3.74511 6.08356ZM4.02176 5.68455C4.09574 5.6133 4.18307 5.55338 4.27437 5.51041L6.40336 10.0345C6.80456 9.84571 7.16988 9.59438 7.48996 9.28615L4.02176 5.68455ZM4.27437 5.51041C4.50237 5.40312 4.72165 5.37171 4.88713 5.37574L4.76521 10.3743C5.3044 10.3874 5.86547 10.2876 6.40336 10.0345L4.27437 5.51041ZM4.82617 5.375C4.92653 5.375 5.12723 5.39467 5.36472 5.51002L3.1802 10.0076C3.7367 10.2779 4.30655 10.375 4.82617 10.375V5.375ZM5.36472 5.51002C5.4877 5.56975 5.59525 5.65151 5.67837 5.74079L2.0189 9.14788C2.34811 9.50148 2.73821 9.79288 3.1802 10.0076L5.36472 5.51002ZM5.67837 5.74079C5.67675 5.73906 5.66527 5.72648 5.64688 5.69637L1.38047 8.30363C1.56259 8.60165 1.77442 8.88529 2.0189 9.14788L5.67837 5.74079ZM5.64688 5.69637C5.59053 5.60418 5.54476 5.5188 5.50769 5.4403L0.986449 7.57533C1.10433 7.82495 1.23629 8.0677 1.38047 8.30363L5.64688 5.69637ZM1.10334 5.22157C0.784099 5.75364 0.538968 6.32141 0.373016 6.92028L5.19144 8.2555C5.23512 8.09786 5.29989 7.94558 5.3908 7.79405L1.10334 5.22157ZM0.373016 6.92028C0.207336 7.51817 0.125 8.13021 0.125 8.75H5.125C5.125 8.57682 5.14748 8.41412 5.19144 8.2555L0.373016 6.92028ZM11.5 11.375V12.25H16.5V11.375H11.5ZM14 9.75H12.25V14.75H14V9.75ZM9.75 12.25V14H14.75V12.25H9.75ZM12.25 11.5H11.375V16.5H12.25V11.5ZM13.875 14V12.25H8.875V14H13.875ZM11.375 9.75H9.625V14.75H11.375V9.75ZM12.125 12.25V11.375H7.125V12.25H12.125ZM9.625 13.875H11.375V8.875H9.625V13.875ZM13.875 11.375V9.625H8.875V11.375H13.875ZM11.375 12.125H12.25V7.125H11.375V12.125ZM9.75 9.625V11.375H14.75V9.625H9.75ZM12.25 13.875H14V8.875H12.25V13.875Z" fill="#FF455B" mask="url(#path-1-inside-1_1996_2481)"/>
</svg>
