<svg width="14" height="14" viewBox="0 0 14 14" fill="none" xmlns="http://www.w3.org/2000/svg">
<g clip-path="url(#clip0_1996_2489)">
<mask id="path-1-inside-1_1996_2489" fill="white">
<path d="M7.12118 8.4945C7.27949 8.3887 7.46562 8.33221 7.65602 8.33221C7.84642 8.33221 8.03256 8.3887 8.19087 8.4945C8.42106 8.64829 8.69169 8.73036 8.96852 8.73036C9.24535 8.73036 9.51599 8.64829 9.74618 8.4945C9.90449 8.3887 10.0906 8.33221 10.281 8.33221C10.4714 8.33221 10.6576 8.3887 10.8159 8.4945C10.9141 8.55869 11.0201 8.61014 11.1313 8.64763C11.1861 8.66681 11.2462 8.66345 11.2985 8.63827C11.3508 8.61311 11.3909 8.5682 11.4101 8.51343C11.4293 8.45865 11.4259 8.39852 11.4007 8.34624C11.3756 8.29395 11.3307 8.25381 11.2759 8.23463C11.1993 8.20888 11.1263 8.17353 11.0587 8.12941C10.8285 7.97563 10.5579 7.89355 10.281 7.89355C10.0042 7.89355 9.73356 7.97563 9.50337 8.12941C9.34506 8.23522 9.15892 8.2917 8.96852 8.2917C8.77812 8.2917 8.59199 8.23522 8.43368 8.12941C8.20349 7.97563 7.93285 7.89355 7.65602 7.89355C7.37919 7.89355 7.10856 7.97563 6.87837 8.12941C6.74403 8.21908 6.58922 8.27337 6.42831 8.28724C6.2674 8.30113 6.10557 8.27416 5.95787 8.20882C5.93052 8.19696 5.90103 8.19081 5.87124 8.19077C5.84142 8.1907 5.81194 8.19674 5.78455 8.20851C5.75716 8.22026 5.73247 8.2375 5.71197 8.25913C5.69147 8.28079 5.67563 8.30638 5.6654 8.33438C5.50805 8.75423 5.44485 9.20352 5.48027 9.65049C5.51568 10.0974 5.64884 10.5312 5.87034 10.921C6.09183 11.3108 6.39624 11.6473 6.76208 11.9065C7.12789 12.1657 7.54621 12.3415 7.98741 12.4212C8.42862 12.501 8.88196 12.4829 9.31542 12.3682C9.74885 12.2535 10.1518 12.0449 10.4958 11.7574C10.8398 11.4697 11.1164 11.1101 11.3061 10.7039C11.4957 10.2976 11.5939 9.85463 11.5935 9.40625C11.5935 9.31875 11.5897 9.23125 11.5819 9.14375C11.5799 9.11477 11.5721 9.08646 11.5591 9.06052C11.546 9.03455 11.5279 9.01148 11.5058 8.9926C11.4837 8.97374 11.458 8.95946 11.4304 8.9506C11.4027 8.94174 11.3735 8.9385 11.3446 8.94104C11.3156 8.94358 11.2875 8.95187 11.2617 8.96541C11.236 8.97895 11.2133 8.9975 11.1948 9.01992C11.1763 9.04236 11.1625 9.06824 11.1542 9.09609C11.1458 9.12391 11.1431 9.15314 11.1462 9.18204C11.1527 9.25626 11.156 9.331 11.156 9.40625C11.156 10.1024 10.8795 10.7701 10.3872 11.2624C9.89488 11.7547 9.22722 12.0313 8.53102 12.0313C7.83483 12.0313 7.16716 11.7547 6.67486 11.2624C6.18259 10.7701 5.90602 10.1024 5.90602 9.40625C5.90626 9.16318 5.94072 8.92135 6.0084 8.68788C6.19711 8.73511 6.39362 8.7423 6.58526 8.70899C6.77691 8.6757 6.95948 8.60263 7.12118 8.4945Z"/>
</mask>
<path d="M7.12118 8.4945L6.5655 7.66311L6.56531 7.66323L7.12118 8.4945ZM8.19087 8.4945L7.63518 9.3259L7.63536 9.32602L8.19087 8.4945ZM9.74618 8.4945L10.3017 9.32602L10.3019 9.3259L9.74618 8.4945ZM10.8159 8.4945L10.2602 9.32595L10.2689 9.33168L10.8159 8.4945ZM11.1313 8.64763L11.4619 7.70378L11.4508 7.70005L11.1313 8.64763ZM11.2985 8.63827L10.8649 7.73716L10.8646 7.7373L11.2985 8.63827ZM11.4007 8.34624L10.4996 8.77983L10.4998 8.78013L11.4007 8.34624ZM11.2759 8.23463L11.6065 7.29077L11.5946 7.28679L11.2759 8.23463ZM11.0587 8.12941L10.5031 8.96098L10.5124 8.96704L11.0587 8.12941ZM9.50337 8.12941L8.94786 7.2979L8.94769 7.29801L9.50337 8.12941ZM8.43368 8.12941L8.98936 7.29801L8.98918 7.2979L8.43368 8.12941ZM6.87837 8.12941L7.43353 8.96115L7.43387 8.96093L6.87837 8.12941ZM6.42831 8.28724L6.34244 7.29093L6.34231 7.29094L6.42831 8.28724ZM5.95787 8.20882L6.36244 7.29428L6.35568 7.29135L5.95787 8.20882ZM5.87124 8.19077L5.86904 9.19077L5.86977 9.19077L5.87124 8.19077ZM5.78455 8.20851L6.17874 9.12754L6.17935 9.12728L5.78455 8.20851ZM5.71197 8.25913L4.98604 7.57136L4.98569 7.57173L5.71197 8.25913ZM5.6654 8.33438L6.60183 8.68533L6.60459 8.67777L5.6654 8.33438ZM5.48027 9.65049L4.48339 9.72948L4.48339 9.72948L5.48027 9.65049ZM5.87034 10.921L6.73981 10.427L6.73979 10.427L5.87034 10.921ZM6.76208 11.9065L7.34028 11.0906L7.34022 11.0906L6.76208 11.9065ZM7.98741 12.4212L7.80947 13.4053L7.80948 13.4053L7.98741 12.4212ZM9.31542 12.3682L9.57126 13.3349L9.57131 13.3349L9.31542 12.3682ZM10.4958 11.7574L11.1372 12.5246L11.1373 12.5245L10.4958 11.7574ZM11.3061 10.7039L12.2122 11.1269L12.2122 11.1269L11.3061 10.7039ZM11.5935 9.40625L10.5935 9.40625L10.5935 9.40704L11.5935 9.40625ZM11.5819 9.14375L10.5843 9.21302L10.585 9.22235L10.5858 9.23166L11.5819 9.14375ZM11.5591 9.06052L12.4523 8.6109L12.4521 8.6106L11.5591 9.06052ZM11.5058 8.9926L12.155 8.23202L12.1549 8.23196L11.5058 8.9926ZM11.2617 8.96541L10.796 8.08051L10.7957 8.08067L11.2617 8.96541ZM11.1948 9.01992L11.9667 9.65565L11.9668 9.65557L11.1948 9.01992ZM11.1542 9.09609L12.1119 9.38371L12.112 9.38351L11.1542 9.09609ZM11.1462 9.18204L12.1423 9.09396L12.1415 9.0853L12.1406 9.07665L11.1462 9.18204ZM10.3872 11.2624L11.0943 11.9695L11.0943 11.9695L10.3872 11.2624ZM6.67486 11.2624L5.96774 11.9695L5.96777 11.9695L6.67486 11.2624ZM5.90602 9.40625L4.90602 9.40526V9.40625H5.90602ZM6.0084 8.68788L6.25117 7.7178L5.31627 7.48383L5.04794 8.40945L6.0084 8.68788ZM6.58526 8.70899L6.4141 7.72375L6.41399 7.72376L6.58526 8.70899ZM7.67686 9.3259C7.67072 9.33001 7.66347 9.33221 7.65602 9.33221V7.33221C7.26777 7.33221 6.88826 7.44738 6.5655 7.66311L7.67686 9.3259ZM7.65602 9.33221C7.64857 9.33221 7.64133 9.33001 7.63518 9.3259L8.74655 7.66311C8.42379 7.44738 8.04427 7.33221 7.65602 7.33221V9.33221ZM7.63536 9.32602C8.03001 9.58967 8.49396 9.73036 8.96852 9.73036V7.73036C8.88942 7.73036 8.8121 7.70691 8.74637 7.66299L7.63536 9.32602ZM8.96852 9.73036C9.44308 9.73036 9.90704 9.58967 10.3017 9.32602L9.19068 7.66299C9.12494 7.70691 9.04762 7.73036 8.96852 7.73036V9.73036ZM10.3019 9.3259C10.2957 9.33001 10.2885 9.33221 10.281 9.33221V7.33221C9.89277 7.33221 9.51326 7.44738 9.1905 7.66311L10.3019 9.3259ZM10.281 9.33221C10.2736 9.33221 10.2663 9.33001 10.2602 9.3259L11.3715 7.66311C11.0488 7.44738 10.6693 7.33221 10.281 7.33221V9.33221ZM10.2689 9.33168C10.4381 9.44217 10.6205 9.5307 10.8118 9.59521L11.4508 7.70005C11.4197 7.68957 11.3902 7.6752 11.3628 7.65733L10.2689 9.33168ZM10.8008 9.59142C11.1059 9.6983 11.441 9.67954 11.7324 9.53923L10.8646 7.7373C11.0514 7.64735 11.2662 7.63533 11.4619 7.70384L10.8008 9.59142ZM11.7321 9.53938C12.0236 9.39913 12.2471 9.14887 12.3539 8.84398L10.4663 8.18287C10.5347 7.98753 10.678 7.82709 10.8649 7.73716L11.7321 9.53938ZM12.3539 8.84398C12.4608 8.53881 12.442 8.20368 12.3017 7.91234L10.4998 8.78013C10.4098 8.59335 10.3978 8.37849 10.4663 8.18287L12.3539 8.84398ZM12.3018 7.91265C12.1616 7.62118 11.9113 7.39763 11.6064 7.29084L10.9453 9.17842C10.75 9.11 10.5896 8.96673 10.4996 8.77983L12.3018 7.91265ZM11.5946 7.28679C11.5982 7.28798 11.6016 7.28964 11.6049 7.29178L10.5124 8.96704C10.651 9.05743 10.8005 9.12979 10.9572 9.18247L11.5946 7.28679ZM11.6142 7.2979C11.2195 7.03425 10.7556 6.89355 10.281 6.89355V8.89355C10.3601 8.89355 10.4374 8.91701 10.5032 8.96093L11.6142 7.2979ZM10.281 6.89355C9.80646 6.89355 9.34251 7.03425 8.94786 7.2979L10.0589 8.96093C10.1246 8.91701 10.2019 8.89355 10.281 8.89355V6.89355ZM8.94769 7.29801C8.95383 7.29391 8.96107 7.2917 8.96852 7.2917V9.2917C9.35677 9.2917 9.73629 9.17653 10.059 8.96081L8.94769 7.29801ZM8.96852 7.2917C8.97597 7.2917 8.98322 7.29391 8.98936 7.29801L7.878 8.96081C8.20076 9.17653 8.58027 9.2917 8.96852 9.2917V7.2917ZM8.98918 7.2979C8.59454 7.03425 8.13058 6.89355 7.65602 6.89355V8.89355C7.73512 8.89355 7.81244 8.91701 7.87818 8.96093L8.98918 7.2979ZM7.65602 6.89355C7.18146 6.89355 6.71751 7.03425 6.32286 7.2979L7.43387 8.96093C7.4996 8.91701 7.57692 8.89355 7.65602 8.89355V6.89355ZM6.3232 7.29767C6.32892 7.29385 6.33553 7.29153 6.34244 7.29093L6.51418 9.28355C6.84292 9.25521 7.15915 9.1443 7.43353 8.96115L6.3232 7.29767ZM6.34231 7.29094C6.34916 7.29035 6.35607 7.29149 6.36243 7.29431L5.5533 9.12333C5.85506 9.25682 6.18564 9.31191 6.51431 9.28353L6.34231 7.29094ZM6.35568 7.29135C6.20339 7.22532 6.03904 7.19102 5.87271 7.19077L5.86977 9.19077C5.76303 9.19061 5.65766 9.1686 5.56005 9.12628L6.35568 7.29135ZM5.87344 7.19077C5.70706 7.19041 5.54247 7.22412 5.38975 7.28975L6.17935 9.12728C6.08141 9.16936 5.97579 9.191 5.86904 9.19077L5.87344 7.19077ZM5.39036 7.28948C5.23743 7.35507 5.09994 7.45114 4.98604 7.57136L6.4379 8.94689C6.36499 9.02385 6.27689 9.08544 6.17873 9.12754L5.39036 7.28948ZM4.98569 7.57173C4.8715 7.69238 4.78322 7.83505 4.7262 7.99099L6.60459 8.67777C6.56805 8.77771 6.51145 8.86919 6.43825 8.94653L4.98569 7.57173ZM4.729 7.98344C4.52025 8.54045 4.43641 9.1365 4.48339 9.72948L6.47714 9.5715C6.4533 9.27053 6.49585 8.96801 6.6018 8.68532L4.729 7.98344ZM4.48339 9.72948C4.53038 10.3224 4.70702 10.8978 5.0009 11.415L6.73979 10.427C6.59065 10.1645 6.50099 9.87246 6.47714 9.5715L4.48339 9.72948ZM5.00088 11.415C5.2947 11.9322 5.69856 12.3785 6.18394 12.7224L7.34022 11.0906C7.09392 10.916 6.88895 10.6895 6.73981 10.427L5.00088 11.415ZM6.18388 12.7224C6.6692 13.0663 7.22416 13.2994 7.80947 13.4053L8.16534 11.4372C7.86826 11.3835 7.58659 11.2652 7.34028 11.0906L6.18388 12.7224ZM7.80948 13.4053C8.39482 13.5111 8.99624 13.4871 9.57126 13.3349L9.05958 11.4015C8.76769 11.4787 8.46243 11.4909 8.16533 11.4372L7.80948 13.4053ZM9.57131 13.3349C10.1463 13.1827 10.6809 12.9061 11.1372 12.5246L9.85437 10.9902C9.62276 11.1838 9.35142 11.3242 9.05952 11.4015L9.57131 13.3349ZM11.1373 12.5245C11.5935 12.143 11.9605 11.6659 12.2122 11.1269L10.4 10.2808C10.2722 10.5543 10.086 10.7965 9.85432 10.9902L11.1373 12.5245ZM12.2122 11.1269C12.4638 10.5879 12.594 10.0003 12.5935 9.40547L10.5935 9.40704C10.5938 9.70896 10.5277 10.0072 10.4 10.2808L12.2122 11.1269ZM12.5935 9.40625C12.5935 9.28921 12.5883 9.17238 12.5781 9.05585L10.5858 9.23166C10.591 9.29013 10.5935 9.3483 10.5935 9.40625H12.5935ZM12.5795 9.07449C12.5683 8.91263 12.5249 8.75506 12.4523 8.6109L10.6658 9.51014C10.6194 9.41786 10.5915 9.31691 10.5843 9.21302L12.5795 9.07449ZM12.4521 8.6106C12.3792 8.46591 12.2782 8.33721 12.155 8.23202L10.8565 9.75318C10.7775 9.68574 10.7127 9.6032 10.666 9.51044L12.4521 8.6106ZM12.1549 8.23196C12.032 8.12705 11.8894 8.04755 11.7353 7.99822L11.1254 9.90298C11.0267 9.87136 10.9353 9.82044 10.8566 9.75324L12.1549 8.23196ZM11.7353 7.99822C11.5806 7.9487 11.4181 7.93076 11.2572 7.94486L11.4319 9.93722C11.329 9.94624 11.2248 9.93478 11.1254 9.90298L11.7353 7.99822ZM11.2572 7.94486C11.0957 7.95902 10.9389 8.00527 10.796 8.08051L11.7275 9.85031C11.636 9.89847 11.5356 9.92813 11.4319 9.93722L11.2572 7.94486ZM10.7957 8.08067C10.6521 8.1563 10.5255 8.25966 10.4229 8.38427L11.9668 9.65557C11.9011 9.73534 11.82 9.80159 11.7278 9.85015L10.7957 8.08067ZM10.4229 8.38419C10.3198 8.50936 10.2429 8.65368 10.1964 8.80867L12.112 9.38351C12.0822 9.4828 12.0329 9.57537 11.9667 9.65565L10.4229 8.38419ZM10.1964 8.80846C10.1498 8.96393 10.1347 9.12677 10.1517 9.28743L12.1406 9.07665C12.1515 9.1795 12.1419 9.2839 12.1119 9.38371L10.1964 8.80846ZM10.1501 9.27011C10.154 9.31475 10.156 9.36011 10.156 9.40625H12.156C12.156 9.3019 12.1515 9.19777 12.1423 9.09396L10.1501 9.27011ZM10.156 9.40625C10.156 9.83722 9.98482 10.2505 9.68006 10.5553L11.0943 11.9695C11.7741 11.2897 12.156 10.3677 12.156 9.40625H10.156ZM9.68009 10.5553C9.37532 10.8601 8.96199 11.0313 8.53102 11.0313V13.0313C9.49244 13.0313 10.4145 12.6493 11.0943 11.9695L9.68009 10.5553ZM8.53102 11.0313C8.10005 11.0313 7.68673 10.8601 7.38195 10.5553L5.96777 11.9695C6.64759 12.6493 7.5696 13.0313 8.53102 13.0313V11.0313ZM7.38198 10.5553C7.07722 10.2505 6.90602 9.83722 6.90602 9.40625H4.90602C4.90602 10.3677 5.28795 11.2897 5.96774 11.9695L7.38198 10.5553ZM6.90602 9.40724C6.90617 9.25801 6.92732 9.10958 6.96885 8.96631L5.04794 8.40945C4.95411 8.73312 4.90636 9.06835 4.90602 9.40526L6.90602 9.40724ZM5.76562 9.65796C6.08974 9.73908 6.42728 9.75145 6.75653 9.69421L6.41399 7.72376C6.35995 7.73316 6.30448 7.73114 6.25117 7.7178L5.76562 9.65796ZM6.75642 9.69423C7.08563 9.63704 7.39925 9.51154 7.67705 9.32578L6.56531 7.66323C6.51971 7.69373 6.46819 7.71435 6.4141 7.72375L6.75642 9.69423Z" fill="#019DE7" mask="url(#path-1-inside-1_1996_2489)"/>
<path d="M1.09375 10.0625C1.21456 10.0625 1.3125 9.96457 1.3125 9.84375C1.3125 9.72293 1.21456 9.625 1.09375 9.625C0.972939 9.625 0.875 9.72293 0.875 9.84375C0.875 9.96457 0.972939 10.0625 1.09375 10.0625Z" fill="#019DE7" stroke="#019DE7"/>
<path d="M3.71095 12.1035C3.67348 12.1251 3.64327 12.1574 3.62413 12.1962C3.60499 12.235 3.59779 12.2786 3.60343 12.3215C3.6091 12.3644 3.62732 12.4046 3.65587 12.4371C3.68439 12.4697 3.72191 12.493 3.76371 12.5042C3.80549 12.5154 3.84968 12.514 3.89063 12.5001C3.9316 12.4861 3.96754 12.4604 3.99388 12.4261C4.02022 12.3918 4.03577 12.3504 4.03861 12.3072C4.04144 12.264 4.03139 12.221 4.00976 12.1835C3.98075 12.1333 3.93298 12.0966 3.87694 12.0816C3.82089 12.0666 3.7612 12.0745 3.71095 12.1035Z" fill="#019DE7"/>
<path d="M1.75 12.6875C1.87081 12.6875 1.96875 12.5896 1.96875 12.4688C1.96875 12.3479 1.87081 12.25 1.75 12.25C1.62919 12.25 1.53125 12.3479 1.53125 12.4688C1.53125 12.5896 1.62919 12.6875 1.75 12.6875Z" fill="#019DE7"/>
<path d="M11.9 6.97815C12.2248 6.67768 12.4238 6.26533 12.4568 5.82409C12.4898 5.38285 12.3545 4.94546 12.078 4.60001C11.8015 4.25454 11.4044 4.02665 10.9667 3.96216C10.5289 3.89769 10.083 4.00145 9.71863 4.25253C9.68973 4.27268 9.66612 4.29952 9.64983 4.33073C9.63353 4.36197 9.625 4.39668 9.625 4.4319V5.69759C9.625 5.74285 9.63902 5.78699 9.66516 5.82392C9.69128 5.86087 9.72823 5.8888 9.77091 5.90387C10.3947 6.12378 10.9484 6.50627 11.3749 7.01182C11.8013 7.51737 12.0851 8.12762 12.1967 8.77954C12.3084 9.43146 12.2439 10.1014 12.01 10.72C11.7761 11.3387 11.3812 11.8836 10.8662 12.2986C10.831 12.327 10.8055 12.3656 10.7932 12.4091C10.7808 12.4525 10.7823 12.4988 10.7973 12.5414C10.8123 12.5841 10.8402 12.621 10.877 12.6472C10.9139 12.6733 10.9579 12.6874 11.0031 12.6875H11.375C11.491 12.6875 11.6023 12.7336 11.6844 12.8157C11.7664 12.8977 11.8125 13.009 11.8125 13.125H5.25C5.25 13.009 5.29609 12.8977 5.37814 12.8157C5.4602 12.7336 5.57148 12.6875 5.6875 12.6875H6.05938C6.10463 12.6876 6.14878 12.6736 6.18575 12.6475C6.22272 12.6213 6.25067 12.5844 6.26577 12.5417C6.28086 12.4991 6.28235 12.4528 6.27003 12.4092C6.25769 12.3657 6.23219 12.327 6.19697 12.2986C5.61328 11.8285 5.1861 11.1922 4.97197 10.474C5.08867 9.86351 4.98118 9.23141 4.66922 8.69381L4.2 7.88072C4.18567 7.85698 4.16688 7.83627 4.14466 7.81969C4.03456 7.48047 3.82145 7.18402 3.535 6.97159L2.75625 6.38753C2.70983 6.35273 2.65149 6.33776 2.59407 6.34599C2.53662 6.35419 2.4848 6.38486 2.45 6.43128C2.4152 6.4777 2.40023 6.53604 2.40846 6.59346C2.41666 6.6509 2.44733 6.70273 2.49375 6.73753L3.27228 7.32159C3.40952 7.42497 3.52478 7.55467 3.61134 7.70309C3.14786 7.51912 2.64095 7.47351 2.15206 7.57184C2.12388 7.57746 2.09708 7.58858 2.0732 7.60454C2.04931 7.62051 2.0288 7.64103 2.01285 7.66494C1.99689 7.68883 1.9858 7.71565 1.9802 7.74382C1.97461 7.77202 1.97462 7.80103 1.98023 7.8292C1.98585 7.85738 1.99696 7.88417 2.01294 7.90806C2.02891 7.93195 2.04943 7.95247 2.07333 7.96841C2.09723 7.98438 2.12403 7.99547 2.15222 8.00105C2.1804 8.00665 2.20942 8.00665 2.23759 8.00103C2.66925 7.91394 3.11725 7.96207 3.52056 8.13884L3.04434 8.41359C2.75249 8.58341 2.42465 8.68182 2.08752 8.70083C1.7504 8.71984 1.41356 8.6589 1.10447 8.52297L1.58091 8.2469C1.63074 8.2177 1.66699 8.16995 1.68176 8.1141C1.69652 8.05825 1.6886 7.99884 1.65972 7.94881C1.63083 7.89879 1.58334 7.86221 1.52759 7.84709C1.47184 7.83196 1.41237 7.83948 1.36216 7.86803L0.549062 8.33812C0.516797 8.35678 0.489829 8.38336 0.470722 8.41536C0.451614 8.44734 0.440998 8.4837 0.43988 8.52095C0.438762 8.55821 0.44718 8.59513 0.464336 8.62821C0.481493 8.6613 0.506815 8.68946 0.537906 8.71C0.737973 8.84197 0.955266 8.94577 1.18366 9.01844C0.985963 9.0551 0.805814 9.15574 0.670976 9.30491C0.536139 9.45405 0.454097 9.6434 0.4375 9.84378C0.4375 10.3263 0.928156 10.7188 1.53125 10.7188C1.54416 10.7188 1.55619 10.7162 1.56887 10.7157C1.51789 10.8058 1.47681 10.9012 1.44637 11.0001C1.40636 11.0243 1.37528 11.0609 1.35781 11.1042C1.34033 11.1476 1.33741 11.1955 1.34947 11.2407C1.35706 11.2685 1.37005 11.2944 1.38769 11.3171C1.40532 11.3398 1.42726 11.3588 1.45225 11.3731C1.47724 11.3873 1.50479 11.3964 1.53332 11.4C1.56186 11.4036 1.59081 11.4015 1.61853 11.3938C1.6613 11.3816 1.70553 11.3753 1.75 11.375C2.11181 11.375 2.40625 11.7675 2.40625 12.25C2.40625 12.7326 2.11181 13.125 1.75 13.125C1.38819 13.125 1.09375 12.7326 1.09375 12.25C1.09349 12.1265 1.1139 12.0039 1.15413 11.8871C1.17142 11.8328 1.1668 11.7738 1.14124 11.7228C1.11569 11.6718 1.07123 11.6328 1.01733 11.6141C0.963441 11.5954 0.904383 11.5985 0.852744 11.6228C0.801106 11.647 0.760974 11.6904 0.740906 11.7438C0.684545 11.9066 0.655928 12.0777 0.65625 12.25C0.65625 12.9739 1.14691 13.5625 1.75 13.5625C1.99462 13.5471 2.2276 13.4526 2.41382 13.2932C2.60004 13.1339 2.72943 12.9183 2.7825 12.679C2.89441 12.8782 3.05511 13.0457 3.24947 13.1658C3.44385 13.2859 3.66553 13.3547 3.89375 13.3657C4.05993 13.3667 4.22341 13.3237 4.36756 13.241C4.49945 13.1621 4.61151 13.054 4.69516 12.9251C4.77881 12.7962 4.83184 12.6498 4.85013 12.4972C4.89436 12.171 4.82681 11.8395 4.6585 11.5566C4.63334 11.5128 4.60578 11.4711 4.57712 11.4308C4.58071 11.4272 4.58406 11.4233 4.58719 11.4192C4.64815 11.3265 4.70317 11.23 4.75191 11.1302C4.94176 11.5495 5.20056 11.934 5.51753 12.2677C5.31912 12.3073 5.14054 12.4143 5.01204 12.5706C4.88353 12.7268 4.81303 12.9227 4.8125 13.125V13.3438C4.8125 13.4018 4.83556 13.4574 4.87657 13.4985C4.91759 13.5395 4.97324 13.5625 5.03125 13.5625H12.0312C12.0893 13.5625 12.1449 13.5395 12.1859 13.4985C12.2269 13.4574 12.25 13.4018 12.25 13.3438V13.125C12.2498 12.9225 12.1794 12.7264 12.0509 12.5699C11.9223 12.4134 11.7436 12.3062 11.545 12.2667C12.2123 11.5653 12.6132 10.6525 12.678 9.68656C12.7429 8.72061 12.4676 7.76242 11.9 6.97815ZM10.0625 5.54622V4.55156C10.3403 4.39303 10.6664 4.34138 10.9796 4.40635C11.2928 4.4713 11.5715 4.6484 11.7633 4.90434C11.9551 5.1603 12.0469 5.47748 12.0214 5.79631C11.9958 6.11514 11.8547 6.41367 11.6246 6.63581C11.1953 6.15653 10.6606 5.78354 10.0625 5.54622ZM4.28947 8.91256C4.45933 9.20439 4.55777 9.53226 4.57677 9.86937C4.59578 10.2065 4.53482 10.5434 4.39884 10.8524L4.12387 10.3762C3.95463 10.0841 3.85632 9.75626 3.83688 9.41918C3.83972 9.3988 3.83972 9.3781 3.83688 9.35772C3.82712 9.04121 3.88787 8.72649 4.01472 8.43634L4.28947 8.91256ZM3.11369 10.9375C3.01667 10.841 2.94129 10.7249 2.89255 10.597C2.84384 10.4692 2.82288 10.3324 2.83106 10.1957L3.36678 9.88337C3.39631 9.86609 3.423 9.84334 3.45166 9.82431C3.50803 10.0952 3.60719 10.3555 3.74544 10.5952L3.93334 10.9209C3.80297 10.867 3.66284 10.8407 3.52179 10.8435C3.38072 10.8464 3.24179 10.8784 3.11369 10.9375ZM3.26309 8.79203L3.47419 8.6704C3.42182 8.87887 3.39588 9.09312 3.39697 9.30806C3.32183 9.38377 3.23763 9.4499 3.14628 9.50494L2.62128 9.81119C2.60892 9.66742 2.55994 9.52922 2.47903 9.40976C2.39811 9.29028 2.28797 9.19352 2.15906 9.12869C2.54774 9.10093 2.92512 8.98599 3.26309 8.79203ZM0.875 9.84378C0.875 9.60665 1.17556 9.40628 1.53125 9.40628C1.88694 9.40628 2.1875 9.60665 2.1875 9.84378C2.1875 10.0809 1.88694 10.2813 1.53125 10.2813C1.17556 10.2813 0.875 10.0809 0.875 9.84378ZM1.93331 10.9574C2.00075 10.8288 2.09666 10.7172 2.21375 10.6313L2.41063 10.4887C2.45879 10.7628 2.58731 11.0164 2.77988 11.2173C2.71797 11.2962 2.66814 11.3839 2.632 11.4774C2.5576 11.3473 2.45713 11.234 2.33691 11.1445C2.21668 11.055 2.07929 10.9913 1.93331 10.9574ZM4.41722 12.4309C4.40808 12.5184 4.37911 12.6026 4.33252 12.6771C4.28592 12.7517 4.22295 12.8147 4.14838 12.8612C3.83469 13.0419 3.38384 12.8494 3.14213 12.4316C3.02343 12.2347 2.97478 12.0034 3.00409 11.7753C3.01328 11.6879 3.04227 11.6037 3.08886 11.5292C3.13543 11.4546 3.19839 11.3917 3.27294 11.3451C3.35237 11.2996 3.44243 11.2762 3.53391 11.277C3.69018 11.2896 3.84064 11.342 3.97101 11.4291C4.10137 11.5162 4.20731 11.6351 4.27875 11.7747C4.39768 11.9715 4.44649 12.2028 4.41722 12.4309Z" fill="#019DE7"/>
<path d="M10.7186 2.84375C10.4974 2.84452 10.2771 2.87155 10.0623 2.92425V2.58475C10.2082 2.53339 10.3311 2.43206 10.4094 2.29873C10.4877 2.16539 10.5163 2.00866 10.4901 1.85627C10.4639 1.70389 10.3846 1.5657 10.2662 1.46617C10.1479 1.36664 9.99819 1.31221 9.84358 1.3125H9.62483V0.65625C9.62483 0.598233 9.60177 0.542594 9.56076 0.50157C9.51974 0.460548 9.46409 0.4375 9.40608 0.4375H7.65608C7.59806 0.4375 7.54241 0.460548 7.5014 0.50157C7.46038 0.542594 7.43733 0.598233 7.43733 0.65625V1.3125H6.34358C6.28556 1.3125 6.22991 1.33555 6.1889 1.37657C6.14788 1.41759 6.12483 1.47323 6.12483 1.53125C6.12516 1.78329 6.21235 2.02752 6.37173 2.22278C6.53111 2.41802 6.75295 2.55235 6.99983 2.60312V5.54619C5.98391 5.95193 5.16764 6.73991 4.72636 7.74091C4.71339 7.76742 4.7059 7.79629 4.7044 7.82578C4.70286 7.85525 4.70733 7.88473 4.7175 7.91245C4.72767 7.94017 4.74336 7.96552 4.76359 7.98702C4.78382 8.0085 4.80821 8.02568 4.83527 8.03751C4.86231 8.04932 4.89147 8.05553 4.921 8.0558C4.95051 8.05604 4.97978 8.05031 5.00704 8.03895C5.03427 8.0276 5.05895 8.01084 5.07955 7.98969C5.10014 7.96854 5.11626 7.94345 5.12689 7.91591C5.33201 7.4508 5.62986 7.03242 6.00222 6.6864C6.3746 6.34036 6.81365 6.07392 7.29251 5.90341C7.33491 5.88818 7.37157 5.86025 7.39749 5.82339C7.42341 5.78655 7.43733 5.7426 7.43733 5.69756V2.625H9.62483V3.5C9.62483 3.55801 9.64788 3.61366 9.6889 3.65468C9.72991 3.69569 9.78556 3.71875 9.84358 3.71875C9.90159 3.71875 9.95724 3.69569 9.99826 3.65468C10.0393 3.61366 10.0623 3.55801 10.0623 3.5V3.37641C10.2755 3.31415 10.4965 3.2821 10.7186 3.28125C11.3565 3.28199 11.9681 3.53577 12.4192 3.98685C12.8703 4.43796 13.1241 5.04956 13.1248 5.6875C13.1257 6.20115 12.9606 6.70134 12.6541 7.11353C12.6369 7.13665 12.6246 7.1629 12.6176 7.19082C12.6107 7.21873 12.6093 7.24773 12.6135 7.27619C12.6178 7.30463 12.6276 7.33195 12.6425 7.35661C12.6573 7.38124 12.6769 7.4027 12.7 7.41978C12.7374 7.44807 12.7829 7.46342 12.8297 7.46353C12.8638 7.4634 12.8973 7.45533 12.9277 7.43995C12.9581 7.42457 12.9845 7.4023 13.0047 7.37494C13.3677 6.88732 13.5633 6.29541 13.5623 5.6875C13.5615 4.93356 13.2616 4.21074 12.7285 3.67763C12.1953 3.14451 11.4725 2.84463 10.7186 2.84375ZM7.87483 0.875H9.18733V1.3125H7.87483V0.875ZM6.59973 1.75H9.84358C9.90159 1.75 9.95724 1.77305 9.99826 1.81407C10.0393 1.85509 10.0623 1.91073 10.0623 1.96875C10.0623 2.02677 10.0393 2.08241 9.99826 2.12343C9.95724 2.16445 9.90159 2.1875 9.84358 2.1875H7.21858C7.08289 2.18733 6.95059 2.1452 6.83979 2.06687C6.72899 1.98854 6.64515 1.87786 6.59973 1.75Z" fill="#019DE7"/>
</g>
<defs>
<clipPath id="clip0_1996_2489">
<rect width="14" height="14" fill="white"/>
</clipPath>
</defs>
</svg>
