<svg width="88" height="20" viewBox="0 0 88 20" fill="none" xmlns="http://www.w3.org/2000/svg">
<path d="M38.9664 4.23792C37.5849 4.23752 36.2285 4.60622 35.0375 5.30586C34.9756 5.34217 34.9216 5.39052 34.8787 5.44807C34.8359 5.50561 34.805 5.57117 34.788 5.64086C34.771 5.71166 34.7681 5.78512 34.7796 5.85702C34.7911 5.92893 34.8167 5.99784 34.855 6.05981C34.9299 6.18024 35.0492 6.26642 35.1871 6.29979C35.3249 6.33316 35.4704 6.31104 35.5922 6.2382C36.9338 5.45032 38.5088 5.15657 40.0443 5.40788C41.5798 5.65919 42.979 6.43971 43.9993 7.61415C45.0195 8.78859 45.5966 10.2829 45.6305 11.8381C45.6644 13.3933 45.1529 14.9113 44.1847 16.129L41.9716 13.9156C42.0783 13.7862 42.1533 13.6336 42.1904 13.4701C42.2032 13.4025 42.2059 13.3334 42.1984 13.265C42.1849 13.1693 42.154 13.0768 42.1072 12.9922C42.0719 12.9356 42.0325 12.8816 41.9893 12.8307C41.9312 12.7589 41.8537 12.6693 41.7624 12.57C41.6712 12.4707 41.5759 12.3666 41.4653 12.2471C41.0697 11.8282 40.54 11.2922 40.0063 10.7578C39.9175 10.6714 39.8303 10.5835 39.7431 10.4963L39.6987 10.4535C38.9268 9.68502 38.1961 8.97547 37.9054 8.69295C37.8781 8.66604 37.8412 8.65097 37.8029 8.65097C37.7636 8.65098 37.726 8.66633 37.6979 8.69376L37.5122 8.88103C37.4984 8.8947 37.4874 8.91097 37.4799 8.92892C37.4724 8.94686 37.4685 8.96612 37.4685 8.98557C37.4685 9.00501 37.4724 9.02427 37.4799 9.04221C37.4874 9.06016 37.4984 9.07643 37.5122 9.0901L40.9583 12.5353C40.9638 12.5406 40.9686 12.5466 40.9728 12.5531C40.9938 12.5812 41.0039 12.616 41.0012 12.651C40.9986 12.6861 40.9833 12.7189 40.9583 12.7436L40.6829 13.0188C40.6693 13.0328 40.653 13.0438 40.6351 13.0514C40.6171 13.059 40.5978 13.0629 40.5784 13.0629C40.5589 13.0629 40.5396 13.059 40.5216 13.0514C40.5037 13.0438 40.4874 13.0328 40.4738 13.0188L37.0269 9.57362C37.0133 9.55981 36.9971 9.54884 36.9792 9.54135C36.9614 9.53386 36.9422 9.53 36.9228 9.53C36.9034 9.53 36.8842 9.53386 36.8663 9.54135C36.8484 9.54884 36.8322 9.55981 36.8186 9.57362L36.637 9.75525C36.6231 9.76884 36.6122 9.78505 36.6047 9.80293C36.5972 9.82081 36.5933 9.84 36.5933 9.85938C36.5933 9.87876 36.5972 9.89795 36.6047 9.91583C36.6122 9.9337 36.6231 9.94991 36.637 9.96351L40.0483 13.3748L40.0862 13.4144C40.1137 13.442 40.1292 13.4795 40.1292 13.5185C40.1292 13.5575 40.1137 13.5949 40.0862 13.6226L39.8061 13.8987C39.7927 13.9123 39.7767 13.9231 39.7591 13.9305C39.7415 13.9378 39.7226 13.9416 39.7035 13.9415C39.6722 13.9418 39.6416 13.9319 39.6163 13.9132C39.6099 13.9091 39.6039 13.9042 39.5986 13.8987L36.1525 10.4535C36.125 10.4255 36.0876 10.4096 36.0483 10.4091C36.0287 10.4089 36.0093 10.4127 35.9912 10.4204C35.9732 10.428 35.9569 10.4393 35.9434 10.4535L35.7561 10.6392C35.729 10.6669 35.7138 10.7041 35.7138 10.7429C35.7138 10.7816 35.729 10.8189 35.7561 10.8466C36.0387 11.138 36.7492 11.8669 37.5162 12.6394L37.6632 12.7863C37.7165 12.8396 37.7698 12.8921 37.8247 12.9478C38.3584 13.4814 38.8953 14.0117 39.3135 14.4064C39.4298 14.5178 39.5388 14.6171 39.6365 14.7035C39.7673 14.8302 39.9083 14.946 40.058 15.0498C40.1299 15.0881 40.2072 15.1153 40.2873 15.1305C40.3139 15.1362 40.3301 15.1378 40.3301 15.1378C40.3551 15.1378 40.3793 15.1418 40.4036 15.1418C40.6164 15.1305 40.8196 15.0494 40.9817 14.9109L41.0002 14.9287L43.1972 17.1332L43.1819 17.1461C41.8446 18.2401 40.1344 18.7717 38.4124 18.6286C36.6904 18.4855 35.0914 17.679 33.9531 16.3793C33.8603 16.272 33.729 16.2055 33.5876 16.1942C33.4462 16.1828 33.306 16.2276 33.1974 16.3187C33.1411 16.3648 33.0949 16.4219 33.0614 16.4864C33.028 16.5509 33.008 16.6216 33.0028 16.6941C32.9969 16.7659 33.0055 16.8381 33.0281 16.9064C33.0507 16.9748 33.0869 17.0379 33.1344 17.092C33.9884 18.0672 35.0734 18.8126 36.2901 19.26C37.5068 19.7075 38.8163 19.8427 40.0988 19.6533C41.3813 19.4639 42.5958 18.9559 43.6311 18.1759C44.6664 17.3958 45.4895 16.3686 46.0251 15.1883C46.5606 14.008 46.7914 12.7122 46.6965 11.4196C46.6015 10.127 46.1838 8.87884 45.4815 7.78939C44.7792 6.69993 43.8149 5.80398 42.6767 5.18353C41.5384 4.56308 40.2628 4.23796 38.9664 4.23792Z" fill="white"/>
<path d="M36.4076 7.90279C37.373 7.3026 38.5204 7.06536 39.6446 7.23351C40.7689 7.40166 41.7966 7.96424 42.544 8.8206C42.6356 8.92667 42.7651 8.99277 42.9047 9.00484C43.0444 9.0169 43.1832 8.97396 43.2917 8.88518C43.3492 8.83988 43.3966 8.78311 43.4309 8.71848C43.4652 8.65386 43.4857 8.5828 43.4911 8.50982C43.4975 8.43709 43.489 8.36382 43.4663 8.29445C43.4435 8.22508 43.4069 8.16104 43.3587 8.10621C42.7191 7.37289 41.9071 6.81011 40.9959 6.46853C40.0847 6.12696 39.1027 6.01731 38.1386 6.14947C37.1744 6.28163 36.2583 6.65144 35.4726 7.22561C34.6869 7.79978 34.0564 8.56028 33.6379 9.43864C33.2193 10.317 33.0258 11.2856 33.0748 12.2573C33.1238 13.2291 33.4138 14.1733 33.9186 15.0052C34.4234 15.837 35.1272 16.5302 35.9666 17.0225C36.8061 17.5147 37.7548 17.7906 38.7273 17.8251H38.7419C38.8827 17.8249 39.018 17.7706 39.1198 17.6733C39.1962 17.5996 39.2493 17.505 39.2725 17.4014C39.2957 17.2977 39.2879 17.1896 39.2502 17.0903C39.2124 16.991 39.1464 16.905 39.0602 16.8429C38.974 16.7808 38.8714 16.7454 38.7653 16.741C37.7416 16.7039 36.7568 16.3392 35.9558 15.7007C35.1549 15.0621 34.5802 14.1834 34.3162 13.1938C34.0522 12.2043 34.113 11.1561 34.4895 10.2036C34.866 9.25113 35.5383 8.44463 36.4076 7.90279Z" fill="white"/>
<path d="M3.39115 0.161438V11.3818L8.00392 5.88138H12.0604V6.07592L6.47548 12.3262L12.8379 19.3328V19.5831H8.7524L3.39115 13.3845V19.579H0V0.161438H3.39115Z" fill="white"/>
<path d="M23.3189 5.88381H26.6809V19.5791H23.3189V17.5788C22.9485 18.3176 22.3282 18.9023 21.4578 19.3329C20.5874 19.7634 19.7261 19.9856 18.874 19.9996C16.7812 20.0185 15.0816 19.3934 13.7752 18.1245C12.4688 16.8555 11.8159 15.0546 11.8164 12.7218C11.8164 10.4438 12.4879 8.67517 13.8309 7.41591C15.1739 6.15665 16.8827 5.53617 18.9572 5.55447C19.855 5.54813 20.7411 5.75771 21.5409 6.16553C22.337 6.57291 22.9292 7.11105 23.3173 7.77997L23.3189 5.88381ZM16.3589 9.68984C15.5903 10.4303 15.2059 11.4396 15.2059 12.7177C15.2059 13.9958 15.5903 15.0097 16.3589 15.7593C17.1276 16.5089 18.0965 16.884 19.2656 16.8846C20.2846 16.8846 21.1413 16.5975 21.8356 16.0233C22.53 15.4491 22.9561 14.7592 23.1138 13.9536C23.2712 13.151 23.2712 12.3256 23.1138 11.523C22.9561 10.7088 22.53 10.0143 21.8356 9.43961C21.1413 8.86487 20.2846 8.57777 19.2656 8.57831C18.097 8.57831 17.1281 8.94882 16.3589 9.68984Z" fill="white"/>
<path d="M31.3992 0V19.4176H28.0371V0H31.3992Z" fill="white"/>
<path d="M55.2918 8.88415C54.2728 8.88415 53.3744 9.17125 52.5966 9.74545C51.8188 10.3197 51.431 11.1898 51.4331 12.356V19.579H48.042V5.88373H51.4331V7.46668C51.9176 6.68852 52.4734 6.17002 53.1005 5.91117C53.7276 5.65233 54.4593 5.52263 55.2958 5.52209L55.2918 8.88415Z" fill="white"/>
<path d="M67.3938 17.1283V19.5685H64.9521V17.1283H67.3938Z" fill="white"/>
<path d="M77.635 18.4635C77.1491 18.9585 76.5677 19.3496 75.9261 19.6133C75.2845 19.8769 74.596 20.0075 73.9023 19.9972C72.4231 19.9972 71.1956 19.5554 70.2197 18.6718C69.2438 17.7881 68.7559 16.5213 68.7559 14.8714C68.7559 13.222 69.2438 11.9554 70.2197 11.0718C71.1956 10.1882 72.4231 9.74635 73.9023 9.74635C74.5519 9.73639 75.1967 9.8583 75.7978 10.1047C76.3989 10.3511 76.9437 10.7169 77.3993 11.18L75.8862 12.7702C75.3107 12.26 74.6627 12.0047 73.9419 12.0041C73.1296 12.0041 72.4616 12.2732 71.9379 12.8114C71.4141 13.3495 71.1523 14.0367 71.1523 14.873C71.1523 15.7631 71.4141 16.457 71.9379 16.9548C72.4616 17.4526 73.1164 17.7015 73.9023 17.7015C74.7803 17.7015 75.4876 17.4324 76.0242 16.8943L77.635 18.4635Z" fill="white"/>
<path d="M86.2378 11.2761C87.1744 12.2447 87.6427 13.4426 87.6427 14.8698C87.6427 16.3099 87.1851 17.5113 86.2701 18.474C85.355 19.4367 84.1309 19.9178 82.5979 19.9173C81.0655 19.9173 79.8441 19.4362 78.9339 18.474C78.0236 17.5118 77.5688 16.3104 77.5693 14.8698C77.5693 13.4432 78.0269 12.2452 78.9419 11.2761C79.857 10.3069 81.0681 9.82252 82.5753 9.82306C84.0809 9.82306 85.3017 10.3074 86.2378 11.2761ZM80.6601 12.8477C80.1951 13.4106 79.9625 14.0846 79.9625 14.8698C79.9625 15.6549 80.1951 16.326 80.6601 16.883C81.1252 17.4394 81.7711 17.7176 82.5979 17.7176C83.4247 17.7176 84.0707 17.4394 84.5357 16.883C85.0008 16.3271 85.2331 15.656 85.2325 14.8698C85.2412 14.1345 84.9791 13.4217 84.4962 12.8671C84.2664 12.5881 83.976 12.3653 83.647 12.2154C83.3181 12.0656 82.9593 11.9928 82.5979 12.0025C81.7711 12.0025 81.1252 12.2843 80.6601 12.8477Z" fill="white"/>
<path d="M67.5186 5.49628L67.4468 5.6666L61.4581 19.5685H58.3221L60.2171 15.1635L56.2891 5.49628H59.5841L61.0996 9.79955L61.7948 11.8563L62.5482 9.85202L64.3616 5.49628H67.5186Z" fill="white"/>
</svg>
