<svg width="14" height="14" viewBox="0 0 14 14" fill="none" xmlns="http://www.w3.org/2000/svg">
<g clip-path="url(#clip0_1996_2492)">
<path d="M1.16699 12.8334L9.33366 4.66669M9.33366 4.66669H10.5003C11.1192 4.66669 11.7127 4.42085 12.1502 3.98327C12.5878 3.54568 12.8337 2.95219 12.8337 2.33335V1.16669H11.667C11.0482 1.16669 10.4547 1.41252 10.0171 1.8501C9.57949 2.28769 9.33366 2.88118 9.33366 3.50002V4.66669ZM2.02449 7.30919L2.91699 6.41669L3.80949 7.30919C4.19064 7.69184 4.40464 8.20993 4.40464 8.75002C4.40464 9.29011 4.19064 9.8082 3.80949 10.1909L2.91699 11.0834L2.02449 10.1909C1.64334 9.8082 1.42934 9.29011 1.42934 8.75002C1.42934 8.20993 1.64334 7.69184 2.02449 7.30919ZM4.35783 4.97585L5.25033 4.08335L6.14283 4.97585C6.52398 5.35851 6.73798 5.87659 6.73798 6.41669C6.73798 6.95678 6.52398 7.47487 6.14283 7.85752L5.25033 8.75002L4.35783 7.85752C3.97667 7.47487 3.76267 6.95678 3.76267 6.41669C3.76267 5.87659 3.97667 5.35851 4.35783 4.97585ZM6.69116 2.64252L7.58366 1.75002L8.47616 2.64252C8.85731 3.02517 9.07131 3.54326 9.07131 4.08335C9.07131 4.62345 8.85731 5.14153 8.47616 5.52419L7.58366 6.41669L6.69116 5.52419C6.31001 5.14153 6.09601 4.62345 6.09601 4.08335C6.09601 3.54326 6.31001 3.02517 6.69116 2.64252Z" stroke="#3DBD41" stroke-linecap="round" stroke-linejoin="round"/>
<path d="M6.69116 10.1908L7.58366 11.0833L6.69116 11.9758C6.30851 12.357 5.79042 12.571 5.25033 12.571C4.71023 12.571 4.19215 12.357 3.80949 11.9758L2.91699 11.0833L3.80949 10.1908C4.19215 9.80969 4.71023 9.59568 5.25033 9.59568C5.79042 9.59568 6.30851 9.80969 6.69116 10.1908ZM9.02449 7.8575L9.91699 8.75L9.02449 9.6425C8.64184 10.0237 8.12375 10.2377 7.58366 10.2377C7.04357 10.2377 6.52548 10.0237 6.14283 9.6425L5.25033 8.75L6.14283 7.8575C6.52548 7.47635 7.04357 7.26235 7.58366 7.26235C8.12375 7.26235 8.64184 7.47635 9.02449 7.8575ZM11.3578 5.52417L12.2503 6.41667L11.3578 7.30917C10.9752 7.69032 10.4571 7.90432 9.91699 7.90432C9.3769 7.90432 8.85881 7.69032 8.47616 7.30917L7.58366 6.41667L8.47616 5.52417C8.85881 5.14302 9.3769 4.92902 9.91699 4.92902C10.4571 4.92902 10.9752 5.14302 11.3578 5.52417Z" stroke="#3DBD41" stroke-linecap="round" stroke-linejoin="round"/>
</g>
<defs>
<clipPath id="clip0_1996_2492">
<rect width="14" height="14" fill="white"/>
</clipPath>
</defs>
</svg>
