<svg width="14" height="14" viewBox="0 0 14 14" fill="none" xmlns="http://www.w3.org/2000/svg">
<path d="M6.53496 9.62411C7.18474 9.62411 7.80791 9.34757 8.26737 8.85533C8.72684 8.36309 8.98496 7.69547 8.98496 6.99934C8.98496 6.30321 8.72684 5.63559 8.26737 5.14335C7.80791 4.65111 7.18474 4.37457 6.53496 4.37457C5.88518 4.37457 5.26201 4.65111 4.80255 5.14335C4.34309 5.63559 4.08496 6.30321 4.08496 6.99934C4.08496 7.69547 4.34309 8.36309 4.80255 8.85533C5.26201 9.34757 5.88518 9.62411 6.53496 9.62411Z" fill="#F4690B"/>
<path d="M11.4327 4.52341C11.4592 3.68907 11.2623 2.86403 10.8653 2.1457C10.4682 1.42736 9.88764 0.845736 9.19203 0.469489C8.49643 0.093241 7.71485 -0.0619153 6.9396 0.0223393C6.16434 0.106594 5.42777 0.426741 4.81686 0.94498C3.97867 0.781002 3.1136 0.902034 2.34283 1.29112C1.57206 1.68021 0.934213 2.31786 0.518635 3.11475C0.103056 3.91164 -0.0694296 4.82784 0.025341 5.735C0.120112 6.64217 0.47739 7.49484 1.04713 8.17359C0.737148 9.11755 0.738615 10.1468 1.05128 11.0898C1.36395 12.0327 1.96892 12.8323 2.76529 13.3552C3.56167 13.8781 4.50131 14.0927 5.42749 13.9632C6.35368 13.8337 7.21043 13.3679 7.85486 12.6436C8.35334 12.9845 8.93824 13.1514 9.52896 13.1212C10.1197 13.0911 10.6871 12.8653 11.1531 12.4752C11.619 12.085 11.9606 11.5496 12.1306 10.9428C12.3006 10.336 12.2907 9.68758 12.1023 9.08701C12.4537 8.79983 12.726 8.41623 12.8905 7.97679C13.055 7.53736 13.1055 7.05846 13.0367 6.59079C12.9679 6.12311 12.7824 5.68407 12.4997 5.32013C12.2171 4.95619 11.8478 4.68091 11.431 4.52341H11.4327ZM10.616 4.49366C10.6102 4.6798 10.6599 4.86307 10.7581 5.01681C10.8562 5.17055 10.9975 5.28674 11.1615 5.34846C11.4394 5.45358 11.6855 5.63721 11.8739 5.87994C12.0623 6.12266 12.1859 6.41544 12.2317 6.72727C12.2775 7.03911 12.2437 7.35841 12.134 7.65136C12.0242 7.94432 11.8426 8.20004 11.6083 8.39144C11.4728 8.50231 11.3731 8.65582 11.3231 8.83045C11.2732 9.00509 11.2755 9.19209 11.3298 9.36523C11.4647 9.79429 11.472 10.2576 11.3507 10.6913C11.2294 11.125 10.9855 11.5077 10.6526 11.7866C10.3197 12.0655 9.91422 12.2269 9.4921 12.2484C9.06997 12.2699 8.652 12.1506 8.29586 11.9069C8.13632 11.7976 7.94629 11.7511 7.75828 11.7754C7.57028 11.7996 7.39599 11.8931 7.26523 12.0399C6.74983 12.62 6.06431 12.9931 5.32309 13.0971C4.58187 13.201 3.8298 13.0294 3.1924 12.611C2.55499 12.1926 2.07083 11.5526 1.82071 10.7979C1.5706 10.0432 1.56966 9.21942 1.81806 8.46406C1.86661 8.31594 1.87706 8.15656 1.84832 8.00262C1.81958 7.84868 1.75271 7.70586 1.65473 7.58914C1.19878 7.04615 0.912835 6.36395 0.836947 5.63812C0.761059 4.9123 0.899037 4.17922 1.23155 3.54162C1.56405 2.90402 2.07443 2.39385 2.69116 2.08259C3.30788 1.77133 4.00005 1.67458 4.67068 1.8059C4.78493 1.82818 4.9023 1.82409 5.01496 1.79392C5.12763 1.76374 5.23298 1.70817 5.32401 1.63092C5.8128 1.21649 6.40207 0.960535 7.02224 0.893277C7.64242 0.826019 8.26761 0.950263 8.82401 1.25134C9.38041 1.55242 9.84478 2.01777 10.1623 2.59244C10.4798 3.16711 10.6373 3.82624 10.616 4.49366Z" fill="#F4690B"/>
</svg>
